<?xml version="1.0" standalone="no"?>
<!DOCTYPE svg PUBLIC "-//W3C//DTD SVG 20010904//EN"
 "http://www.w3.org/TR/2001/REC-SVG-20010904/DTD/svg10.dtd">
<svg version="1.0" xmlns="http://www.w3.org/2000/svg"
 width="1200.000000pt" height="1200.000000pt" viewBox="0 0 1200.000000 1200.000000"
 preserveAspectRatio="xMidYMid meet">
<metadata>
Created by potrace 1.14, written by Peter Selinger 2001-2017
</metadata>
<g transform="translate(0.000000,1200.000000) scale(0.100000,-0.100000)"
fill="#000000" stroke="none">
<path d="M0 6000 l0 -6000 6000 0 6000 0 0 6000 0 6000 -6000 0 -6000 0 0
-6000z m6270 4240 c748 -47 1460 -287 2084 -702 465 -309 875 -719 1184 -1184
506 -761 753 -1663 704 -2572 -26 -484 -117 -908 -289 -1342 -317 -803 -879
-1499 -1599 -1978 -761 -506 -1663 -753 -2572 -704 -484 26 -908 117 -1342
289 -803 317 -1499 879 -1978 1599 -506 761 -753 1663 -704 2572 26 484 117
908 289 1342 317 803 879 1499 1599 1978 776 517 1687 760 2624 702z"/>
<path d="M7280 8177 c-177 -53 -246 -129 -400 -442 -136 -276 -462 -1069 -582
-1413 -63 -184 -145 -378 -216 -515 l-55 -107 -24 42 c-45 79 -101 222 -163
418 -121 382 -310 939 -398 1175 -186 495 -247 614 -337 654 -95 42 -193 51
-290 26 -132 -34 -182 -76 -240 -200 -105 -224 -190 -570 -225 -915 -13 -128
-145 -944 -307 -1905 l-107 -630 0 -180 c-1 -214 11 -262 79 -330 59 -59 121
-78 260 -79 93 0 117 3 155 21 60 29 93 60 129 124 49 89 74 197 181 794 33
187 83 455 110 595 27 140 54 287 59 325 13 88 36 388 52 650 6 110 15 203 18
208 4 4 22 -30 40 -75 115 -284 366 -849 462 -1040 33 -66 80 -175 103 -242
114 -318 234 -494 374 -546 101 -38 177 -17 267 74 68 68 109 141 203 361 33
77 105 232 160 345 112 232 175 373 239 540 24 63 113 252 196 420 l151 305 7
-60 c13 -101 28 -478 39 -940 11 -477 41 -1095 65 -1350 31 -320 80 -484 165
-547 90 -66 380 -63 489 6 47 30 63 57 84 146 30 123 31 227 3 450 -30 244
-49 473 -76 945 -45 777 -64 1023 -145 1870 -62 647 -110 881 -200 970 -75 76
-185 93 -325 52z"/>
</g>
</svg>
